CD_DA
CD_TEXT { LANGUAGE_MAP { 0:EN }
    LANGUAGE 0 {
        TITLE "Hot Fuss"
        PERFORMER "The Killers"
        DISC_ID "8F0AB30B"
}}

//Track 1
TRACK AUDIO
    CD_TEXT { LANGUAGE 0 {
        TITLE "Jenny Was A Friend Of Mine"
        PERFORMER "The Killers"
    }}
    AUDIOFILE "01-Jenny Was A Friend Of Mine.wav" 00:00:00 04:04:01

//Track 2
TRACK AUDIO
    CD_TEXT { LANGUAGE 0 {
        TITLE "Mr. Brightside"
        PERFORMER "The Killers"
    }}
    AUDIOFILE "01-Jenny Was A Friend Of Mine.wav" 04:04:01
    START
    AUDIOFILE "02-Mr. Brightside.wav" 00:00:00

//Track 3
TRACK AUDIO
    CD_TEXT { LANGUAGE 0 {
        TITLE "Smile Like You Mean It"
        PERFORMER "The Killers"
    }}
    AUDIOFILE "03-Smile Like You Mean It.wav" 00:00:00 03:54:14

//Track 4
TRACK AUDIO
    CD_TEXT { LANGUAGE 0 {
        TITLE "Somebody Told Me"
        PERFORMER "The Killers"
    }}
    AUDIOFILE "03-Smile Like You Mean It.wav" 03:54:14
    START
    AUDIOFILE "04-Somebody Told Me.wav" 00:00:00

//Track 5
TRACK AUDIO
    CD_TEXT { LANGUAGE 0 {
        TITLE "All These Things That I've Done"
        PERFORMER "The Killers"
    }}
    AUDIOFILE "05-All These Things That I've Done.wav" 00:00:00 05:01:50

//Track 6
TRACK AUDIO
    CD_TEXT { LANGUAGE 0 {
        TITLE "Andy, You're A Star"
        PERFORMER "The Killers"
    }}
    AUDIOFILE "05-All These Things That I've Done.wav" 05:01:50
    START
    AUDIOFILE "06-Andy, You're A Star.wav" 00:00:00

//Track 7
TRACK AUDIO
    CD_TEXT { LANGUAGE 0 {
        TITLE "On Top"
        PERFORMER "The Killers"
    }}
    AUDIOFILE "07-On Top.wav" 00:00:00

//Track 8
TRACK AUDIO
    CD_TEXT { LANGUAGE 0 {
        TITLE "Change Your Mind"
        PERFORMER "The Killers"
    }}
    AUDIOFILE "08-Change Your Mind.wav" 00:00:00

//Track 9
TRACK AUDIO
    CD_TEXT { LANGUAGE 0 {
        TITLE "Believe Me Natalie"
        PERFORMER "The Killers"
    }}
    AUDIOFILE "09-Believe Me Natalie.wav" 00:00:00

//Track 10
TRACK AUDIO
    CD_TEXT { LANGUAGE 0 {
        TITLE "Midnight Show"
        PERFORMER "The Killers"
    }}
    AUDIOFILE "10-Midnight Show.wav" 00:00:00

//Track 11
TRACK AUDIO
    CD_TEXT { LANGUAGE 0 {
        TITLE "Everything Will Be Alright"
        PERFORMER "The Killers"
    }}
    AUDIOFILE "11-Everything Will Be Alright.wav" 00:00:00